<?xml version="1.0" encoding="UTF-8"?><svg id="Layer_2" xmlns="http://www.w3.org/2000/svg" viewBox="0 0 221.17 221.17"><defs><style>.cls-1{fill:#fff;}.cls-2{fill:#f2cac0;}</style></defs><g id="Layer_1-2"><g><rect class="cls-2" width="221.17" height="221.17" rx="31.46" ry="31.46"/><g><path class="cls-1" d="M80.17,58.7H43.61v100.32h20.73v-30.89h15.83c19.14,0,34.72-15.57,34.72-34.72s-15.57-34.72-34.72-34.72Zm0,50.32h-15.83v-31.2h15.83c8.6,0,15.6,7,15.6,15.6s-7,15.6-15.6,15.6Z"/><path class="cls-1" d="M177.03,102.23v-14.57c0-1.29-.82-2.44-2.03-2.87-14.75-5.31-37.29-4.23-45.83,9.26-2.99,4.72-3.81,10.49-2.65,15.96,1.62,7.61,6.9,12.73,14.25,16.44,1.76,.89,3.59,1.64,5.45,2.29,5.93,2.09,11.76,4.74,13.62,8.05,.94,1.68,.38,4.06-1.23,5.1-5.16,3.34-19.52,1.31-30.45-3.76-.94-.44-2.01,.26-2.01,1.3v14.54c0,1.16,.65,2.23,1.7,2.73,14.32,6.85,48.21,7.02,52.61-14.18,2.11-13.32-3.69-22.68-17.9-27.99-7.47-2.64-15.29-5.64-16.52-9.85-.3-1.03-.05-2.14,.6-2.99,4.01-5.19,19.52-2.82,28.31,1.8,.95,.5,2.09-.19,2.09-1.26Z"/></g></g></g></svg>