<?xml version="1.0" encoding="UTF-8"?><svg id="Layer_2" xmlns="http://www.w3.org/2000/svg" viewBox="0 0 221.17 221.17"><defs><style>.cls-1{fill:#fffeff;}.cls-2{fill:#f2cac0;}</style></defs><g id="Layer_1-2"><g><rect class="cls-2" width="221.17" height="221.17" rx="31.46" ry="31.46"/><g><path class="cls-1" d="M123.17,101.19c4.08-6.97,9.43-12.66,16.62-16.49,2.78-1.48,5.74-2.48,8.89-2.68,8.36-.53,16.24,3.22,20.15,11.59,1.29,2.75,2,5.66,2.31,8.68,.6,5.77-.15,11.4-1.72,16.96-1.98,7.05-3.94,14.12-5.89,21.18-.48,1.74-.89,3.5-.99,5.31-.05,.96-.02,1.91,.18,2.86,.56,2.78,2.6,3.87,5.34,3.22,1.51-.36,2.6-1.35,3.58-2.49,1.22-1.42,2.14-3.04,2.97-4.71,.85-1.72,1.57-3.49,2.25-5.28,.22-.59,.23-.6,.79-.39,2.32,.89,4.64,1.79,6.96,2.69,.57,.22,.59,.24,.43,.76-1.4,4.69-3.19,9.2-5.99,13.25-2.2,3.2-4.89,5.89-8.38,7.7-3.28,1.71-6.78,2.4-10.46,2.3-2.14-.06-4.26-.28-6.32-.89-6.5-1.91-10.31-6.25-11.5-12.87-.8-4.44-.33-8.84,.87-13.16,2.07-7.45,4.17-14.9,6.25-22.36,.86-3.1,1.11-6.25,.44-9.42-.95-4.46-4.08-7.34-8.64-7.9-6.17-.75-11.02,1.52-14.59,6.58-1.99,2.83-3.31,5.98-4.21,9.3-.99,3.67-1.88,7.36-2.8,11.05-3.14,12.57-6.27,25.15-9.4,37.72-.18,.74-.19,.74-.89,.75-6.41,0-12.81,0-19.22,0-.22,0-.44,.04-.71-.11,1.17-4.69,2.34-9.4,3.54-14.24-.45,.27-.57,.61-.75,.89-2.06,3.12-4.43,5.98-7.3,8.4-3.89,3.29-8.31,5.46-13.39,6.13-3.82,.5-7.6,.29-11.26-.99-5.15-1.79-8.35-5.43-9.76-10.66-.67-2.48-.82-5.01-.73-7.57,.13-3.94,1.02-7.74,1.95-11.54,2.79-11.34,5.55-22.68,8.33-34.02,.2-.82,.2-.83-.68-.83-4.22,0-8.43,0-12.65,0-.3,0-.6,.05-.91-.05-.14-.22,0-.42,.06-.61,1.35-4.99,2.7-9.98,4.05-14.96,.18-.67,.19-.68,.87-.68,11.25,0,22.5,0,33.75,0h.53c.05,.35-.07,.62-.14,.9-4.6,18.27-9.21,36.53-13.81,54.8-.65,2.58-1.12,5.19-1.08,7.86,0,.47,.06,.93,.16,1.38,.29,1.39,1.09,2.35,2.39,2.93,1.47,.66,3,.77,4.58,.55,6.45-.91,11.46-4.2,15.39-9.29,1.43-1.85,2.59-3.86,3.59-5.97,.3-.63,.42-1.3,.58-1.96,2.84-11.35,5.67-22.71,8.51-34.06,.21-.84,.21-.84-.66-.84-4.3,0-8.6,0-12.89,0-.3,0-.6,.06-.91-.08,.07-.65,.3-1.27,.47-1.9,1.22-4.51,2.44-9.03,3.66-13.54,.21-.78,.21-.78,1.04-.78,9.94,0,19.87,0,29.81,0,.27,0,.55-.06,.84,.09-.07,.89-.34,1.76-.53,2.63-1.05,4.84-2.11,9.67-3.16,14.51-.03,.13-.07,.26-.11,.39-.11,.2-.24,.41-.08,.66,.28-.18,.37-.42,.41-.69Z"/><path class="cls-1" d="M76.92,47.45c5.79,0,10.74,3.77,12.16,9.28,1.82,7.07-2.85,14.12-10.06,15.25-5.64,.88-10.63-1.87-12.99-6.05-3.75-6.62-.85-14.88,6.33-17.64,1.47-.57,2.99-.84,4.57-.83Z"/></g></g></g></svg>