<?xml version="1.0" encoding="UTF-8"?><svg id="Layer_2" xmlns="http://www.w3.org/2000/svg" viewBox="0 0 221.17 221.17"><defs><style>.cls-1{fill:#fff;}.cls-2{fill:#f2cac0;}</style></defs><g id="Layer_1-2"><g><rect class="cls-2" width="221.17" height="221.17" rx="31.46" ry="31.46"/><g><rect class="cls-1" x="148.69" y="86.57" width="14.81" height="73.5"/><path class="cls-1" d="M156.1,76.85c4.93,0,8.92-4,8.92-8.92s-4-8.92-8.92-8.92-8.92,4-8.92,8.92,4,8.92,8.92,8.92Z"/><path class="cls-1" d="M79.2,61.33l1.35,4.5c.22,.72,.22,1.49,0,2.21l-27.59,92.03h16.29l8.2-27.34h32.94l8.2,27.34h16.29l-29.73-99.15c-.11-.37-.45-.63-.84-.63h-24.32c-.54,0-.93,.52-.78,1.04Zm2.68,56.62l12.04-40.15,12.04,40.15h-24.08Z"/></g></g></g></svg>