<?xml version="1.0" encoding="UTF-8"?><svg id="Layer_2" xmlns="http://www.w3.org/2000/svg" viewBox="0 0 221.17 221.17"><defs><style>.cls-1{fill:#fff;}.cls-2{fill:#f2cac0;}</style></defs><g id="Layer_1-2"><g><rect class="cls-2" width="221.17" height="221.17" rx="31.46" ry="31.46"/><g><path class="cls-1" d="M58.31,62.6h18.22c.42,0,.77,.34,.77,.77v97.96c0,.42-.34,.77-.77,.77h-18.22c-.42,0-.77-.34-.77-.77V63.36c0-.42,.34-.77,.77-.77Z"/><path class="cls-1" d="M163.63,54.23h-21.05v31.12c-30.71-2.28-48.49,14.75-49.07,40.82,.64,36.17,35.03,45.12,70.11,31.57V54.23Zm-47.83,74.96c-.65-3.44-.68-7,.11-10.42,2.63-11.47,12.58-17.4,26.68-15.57v41.6c-15.16,2.06-24.42-3.04-26.79-15.61Z"/></g></g></g></svg>