<?xml version="1.0" encoding="UTF-8"?><svg id="Layer_2" xmlns="http://www.w3.org/2000/svg" viewBox="0 0 221.17 221.17"><defs><style>.cls-1{fill:#fff;}.cls-2{fill:#f2cac0;}</style></defs><g id="Layer_1-2"><g><rect class="cls-2" width="221.17" height="221.17" rx="31.46" ry="31.46"/><g><path class="cls-1" d="M59.75,112.25l-28.44,46.41c-.53,.87,.09,1.99,1.11,1.99h19.48c1.02,0,1.95-.56,2.43-1.46l18.51-35.11,19.05,35.14c.48,.88,1.41,1.44,2.41,1.44h21.64c1.03,0,1.66-1.14,1.1-2.01l-29.83-46.74,27.75-46.44c.52-.87-.11-1.98-1.12-1.98h-18.77c-1.03,0-1.97,.57-2.44,1.48l-18.43,35.63-18.43-35.63c-.47-.91-1.41-1.48-2.44-1.48h-20.93c-1.02,0-1.64,1.11-1.12,1.98l28.45,46.78Z"/><path class="cls-1" d="M186.49,55.31h-18.69c-.5,0-.9,.4-.9,.9v29.4c-29.9-2.22-47.21,14.36-47.77,39.74,.62,35.21,34.11,43.93,68.26,30.73V56.21c0-.5-.4-.9-.9-.9Zm-45.67,72.98c-.63-3.35-.66-6.82,.1-10.14,2.56-11.17,12.25-16.94,25.98-15.16v40.5c-14.76,2-23.78-2.96-26.08-15.2Z"/></g></g></g></svg>