<?xml version="1.0" encoding="UTF-8"?><svg id="Layer_2" xmlns="http://www.w3.org/2000/svg" viewBox="0 0 221.17 221.17"><defs><style>.cls-1{fill:#fff;}.cls-2{fill:#f2cac0;}</style></defs><g id="Layer_1-2"><g><rect class="cls-2" width="221.17" height="221.17" rx="31.46" ry="31.46"/><g><path class="cls-1" d="M77.35,141.54V61.91c0-.71-.58-1.29-1.29-1.29h-16.31c-.71,0-1.29,.58-1.29,1.29v97.22c0,.78,.63,1.41,1.41,1.41h54.79c.51,0,.94-.37,1.02-.87l2.72-16.95c.1-.63-.38-1.19-1.02-1.19h-40.04Z"/><path class="cls-1" d="M168.27,82.87c-9.22,.06-16.38,4.44-22.24,11.52h-.11v-3.3c0-2.72-.55-4.71-1.95-6.19-.36-.39-.88-.58-1.41-.58h-13.91c-.76,0-1.28,.73-1.07,1.46,.43,1.5,.5,3.14,.5,5.31v68.57c0,.49,.4,.89,.89,.89h17.1c.49,0,.89-.4,.89-.89v-48.26c4.68-5.57,11.8-7.95,21.3-7.21,.53,.04,.99-.37,.99-.91v-19.42c0-.55-.45-.98-1-.98Z"/></g></g></g></svg>