<?xml version="1.0" encoding="UTF-8"?><svg id="Layer_2" xmlns="http://www.w3.org/2000/svg" viewBox="0 0 221.17 221.17"><defs><style>.cls-1{fill:#fff;}.cls-2{fill:#f2cac0;}</style></defs><g id="Layer_1-2"><g><rect class="cls-2" width="221.17" height="221.17" rx="31.46" ry="31.46"/><path class="cls-1" d="M64.13,71.17v-4.96c.07-.15,.18-.31,.2-.47,1.24-11.71,11.65-22.26,25.84-22.04,13.69,.21,27.39,.04,41.09,.06,1.3,0,2.61,.07,3.9,.22,18.26,2.17,27.94,23.26,17.72,38.56-1.88,2.81-4.23,5.15-7.02,7.08,13.14,9.1,13.46,25.33,7.09,34.68-3.35,4.92-7.76,8.46-13.47,10.15-9.06,2.69-17.29,.91-24.78-5.21,0,.75,0,1.22,0,1.7,0,7.01,.03,14.01,0,21.02-.07,11.74-7.6,21.57-18.84,24.65-1.33,.36-2.7,.58-4.05,.87h-5.22c-.24-.08-.47-.21-.71-.24-10.25-1.4-18.56-8.88-21.01-18.95-.26-1.09-.48-2.18-.72-3.28v-4.96c.07-.25,.19-.49,.22-.74,.64-5.11,2.67-9.62,6.12-13.42,1.44-1.59,3.13-2.95,4.72-4.43,0-.01-.03-.11-.1-.16-.2-.16-.42-.31-.63-.47-5.02-3.71-8.26-8.61-9.7-14.69-.25-1.05-.42-2.12-.63-3.18,0-1.57,0-3.13,0-4.7,.08-.29,.19-.58,.23-.87,1-7.13,4.44-12.8,10.21-17.08,.26-.19,.49-.42,.74-.65-5.84-4.59-8.62-8.43-10.23-14.18-.4-1.41-.64-2.87-.95-4.31Zm42.23,14.4V52.04c-.22-.05-.35-.1-.47-.1-5.74,0-11.48-.14-17.22,.03-8.43,.26-15.44,6.73-16.21,14.71-.85,8.84,4.4,16.59,12.88,18.38,3.06,.65,6.31,.43,9.47,.48,3.82,.07,7.64,.02,11.55,.02Zm8.39,0c.55,0,.98,0,1.41,0,5.17,0,10.35,.02,15.52-.01,1.17,0,2.35-.09,3.5-.29,7.9-1.37,13.96-8.89,13.65-16.88-.32-8.52-6.72-15.75-14.92-16.25-6.28-.38-12.6-.13-18.9-.16-.07,0-.14,.09-.27,.17v33.42Zm-8.35,8.3c-.4-.03-.66-.06-.92-.06-5.52,0-11.04-.03-16.56,.02-1.29,.01-2.61,.17-3.86,.48-8.33,2.08-13.5,9.72-12.59,18.51,.82,7.92,7.93,14.38,16.2,14.56,5.65,.12,11.3,.03,16.95,.02,.25,0,.49-.06,.78-.1v-33.43Zm-.03,41.79c-6,0-11.91-.08-17.81,.02-10.05,.16-17.79,9.69-16.02,19.59,1.42,7.92,8.01,13.61,16.22,14.01,7.72,.38,15.08-5.06,17.11-12.64,.21-.8,.47-1.61,.48-2.42,.04-6.12,.02-12.25,.02-18.55Zm25.35-41.85c-9.58,.02-17.05,7.43-17.02,16.87,.03,9.37,7.52,16.73,17.02,16.74,9.55,0,17.13-7.43,17.12-16.81,0-9.38-7.58-16.82-17.13-16.8Z"/></g></g></svg>