<?xml version="1.0" encoding="UTF-8"?><svg id="Layer_2" xmlns="http://www.w3.org/2000/svg" viewBox="0 0 221.17 221.17"><defs><style>.cls-1{fill:#f2cac0;}.cls-2{fill:#fbfcfc;}</style></defs><g id="Layer_1-2"><g><rect class="cls-1" width="221.17" height="221.17" rx="31.46" ry="31.46"/><path class="cls-2" d="M110.87,43.69h.04c36.48,.02,66.55,30.24,66.56,66.88-.09,36.71-29.49,66.9-66.9,66.9h-.03c-37.85-.01-66.99-30.93-66.85-67.17,.15-36.73,30.17-66.61,67.18-66.61m.04-6h-.04c-40.19,0-73.02,32.56-73.18,72.59-.08,19.53,7.49,37.94,21.33,51.84,13.7,13.76,32,21.35,51.52,21.36,19.65,0,38.01-7.62,51.74-21.46,13.62-13.73,21.15-32,21.2-51.43,0-19.33-7.59-37.59-21.35-51.42-13.77-13.84-31.96-21.46-51.21-21.47h0Z"/><path class="cls-2" d="M110.91,43.69c-37.02-.02-67.07,29.87-67.22,66.61-.15,36.24,28.99,67.15,66.85,67.17,37.42,.01,66.84-30.19,66.93-66.9,0-36.64-30.08-66.86-66.56-66.88Zm-56.98,42.31c.92,1.1,28.86,77.32,29.3,80-30.84-15.24-42.09-51.82-29.3-80Zm73.14,84.18c-10.74,2.9-21.49,2.96-32.29,.24-1.55-.39-1.42-.93-1.02-2.08,4.01-11.57,7.99-23.16,11.98-34.74,1.72-4.98,3.42-9.96,5.17-14.94,.22-.61,.23-1.35,1.08-2,5.88,16.34,11.69,32.5,17.5,48.67,1.35,3.76,1.35,3.83-2.42,4.84Zm13.77-24.55c-6.97-20.7-13.92-41.41-20.93-62.1-.54-1.59-.37-2.21,1.4-2.26,1.64-.04,3.28-.23,4.91-.47,1.57-.23,2.5-1.21,2.34-2.84-.16-1.69-1.31-2.28-2.9-2.19-7.75,.4-15.5,.66-23.26,.44-3.02-.08-6.03-.3-9.04-.43-1.6-.07-2.92,.36-3.01,2.27-.08,1.78,.95,2.61,2.63,2.79,.61,.07,1.25,.3,1.83,.22,3.42-.49,4.85,1.19,5.86,4.33,2.2,6.84,4.82,13.55,7.33,20.29,.5,1.35,.57,2.56,.1,3.95-4.12,12.05-8.17,24.13-12.24,36.2-.17,.5-.15,1.11-.85,1.51-2.25-6.68-4.5-13.32-6.74-19.97-4.91-14.6-9.81-29.21-14.72-43.81-.77-2.28-.77-2.26,1.72-2.41,1.37-.08,2.74-.19,4.09-.39,2.07-.29,2.98-1.35,2.73-3.07-.3-2.07-1.88-2.14-3.43-2.06-5.69,.29-11.37,.69-17.07,.58-.67-.01-1.34,0-2.31,0,21.82-32.59,66.76-35.65,92.23-11.72-9.91,1.31-11.92,10.26-9.24,17.02,1.15,2.9,2.82,5.48,4.55,8.04,2.05,3.03,3.63,6.27,4.55,9.83,1.37,5.31,1.37,10.65-.14,15.87-3.06,10.59-6.35,21.11-9.55,31.65-.77-.13-.68-.81-.84-1.29Zm.96,18.25c1.98-5.68,3.8-10.89,5.61-16.1,5.06-14.62,10.14-29.23,15.16-43.86,1.18-3.44,1.85-7.01,2.37-10.61,.52-3.56,.29-7.12,.39-10.73,13.07,21.59,9.45,61.63-23.53,81.3Z"/></g></g></svg>