<?xml version="1.0" encoding="UTF-8"?><svg id="Layer_2" xmlns="http://www.w3.org/2000/svg" viewBox="0 0 221.17 221.17"><defs><style>.cls-1{fill:#fff;}.cls-2{fill:#f2cac0;}.cls-3{fill:#fdfdfe;}</style></defs><g id="Layer_1-2"><g><rect class="cls-2" width="221.17" height="221.17" rx="31.46" ry="31.46"/><g><g><path class="cls-1" d="M109.1,36.52c2.9,0,5.81,0,8.71,0,.37,0,.51,.05,.51,.48-.03,1.93-.02,3.85,0,5.78,0,.39-.11,.46-.47,.46-3.23-.02-6.45,0-9.68-.02-.51,0-.66,.15-.58,.62,.02,.1,.02,.2,0,.3-.06,.37,.12,.44,.46,.44,3.24-.01,6.48,0,9.73-.02,.45,0,.55,.11,.55,.55-.02,4.8-.02,9.59,0,14.39,0,.39-.08,.51-.49,.5-5.81-.01-11.62-.01-17.43,0-.42,0-.53-.11-.53-.53,.02-2.01,.02-4.02,0-6.03,0-.39,.09-.5,.49-.5,3.26,.02,6.52,0,9.78,.02,.37,0,.48-.08,.47-.46-.03-.88,0-.88-.86-.88-3.12,0-6.25,0-9.37,0-.39,0-.51-.08-.51-.49,.02-4.71,.02-9.43,0-14.14,0-.43,.15-.48,.52-.48,2.9,.01,5.81,0,8.71,0Z"/><path class="cls-1" d="M131.24,36.52c2.9,0,5.81,0,8.71,0,.35,0,.49,.05,.48,.45-.03,1.94-.02,3.89,0,5.83,0,.37-.11,.43-.45,.43-3.26-.01-6.52,0-9.78-.02-.4,0-.51,.1-.5,.5,.03,.85,0,.85,.84,.85,3.12,0,6.25,0,9.37,0,.38,0,.52,.07,.51,.49-.02,4.83-.02,9.66,0,14.49,0,.4-.13,.46-.49,.46-5.83-.01-11.65-.01-17.48,0-.39,0-.47-.1-.47-.48,.02-2.03,.02-4.05,0-6.08,0-.38,.08-.5,.49-.5,3.24,.02,6.48,0,9.73,.02,.43,0,.53-.11,.51-.53-.03-.82,0-.82-.82-.82-3.14,0-6.28,0-9.42,0-.37,0-.49-.07-.48-.46,.02-4.73,.02-9.46,0-14.19,0-.4,.12-.46,.48-.46,2.92,.01,5.84,0,8.76,0Z"/><path class="cls-1" d="M77.76,48.08c0-3.7,0-7.4,0-11.1,0-.38,.1-.47,.47-.47,5.84,.01,11.69,.01,17.53,0,.4,0,.46,.12,.45,.48-.02,2.26-.02,4.53,0,6.79,0,.39-.11,.46-.48,.46-3.26-.01-6.52,0-9.78-.02-.4,0-.5,.1-.5,.5,.02,2.25,.02,4.49,0,6.74,0,.41,.12,.49,.5,.49,3.26-.02,6.52,0,9.78-.02,.38,0,.47,.09,.47,.47-.02,2.28-.02,4.56,0,6.84,0,.33-.08,.42-.41,.42-5.86-.01-11.72-.01-17.58,0-.4,0-.46-.12-.46-.48,.01-3.7,0-7.4,0-11.1Z"/></g><path class="cls-3" d="M159.59,68.54c-16.32,.01-32.63,0-48.95,0H61.94c-.15,0-.31,.02-.46,0-.34-.04-.44,.07-.41,.44,.57,6.19,1.14,12.37,1.68,18.56,.05,.59,.22,.78,.85,.78,15.68-.01,31.36,0,47.04,0,8.87,0,17.75,0,26.62,0,.15,0,.31,.02,.46,0,.53-.08,.73,.08,.67,.67-.21,1.96-.36,3.94-.54,5.9-.39,4.33-.79,8.66-1.14,12.99-.05,.6-.24,.73-.81,.73-8.42,0-16.84,0-25.26,0-8.29,0-16.59,0-24.88,0-6.76,0-13.53,0-20.29,0-.15,0-.31,.01-.46,0-.32-.03-.41,.08-.38,.41,.18,1.9,.34,3.8,.51,5.71,.38,4.29,.79,8.57,1.14,12.86,.05,.65,.24,.81,.89,.81,14.49-.01,28.98,0,43.47,0,7.8,0,15.61,0,23.41,0,.18,0,.35,.01,.53,0,.31-.03,.35,.13,.33,.4-.31,3.43-.62,6.87-.92,10.3-.43,4.77-.86,9.53-1.27,14.3-.04,.49-.18,.71-.68,.85-7.05,1.88-14.1,3.79-21.14,5.7-.09,.02-.17,.02-.25,.03-.17,.01-.34,0-.52-.05-7.02-1.9-14.05-3.8-21.07-5.68-.41-.11-.57-.29-.61-.7-.17-2.17-.36-4.33-.56-6.5-.25-2.76-.51-5.51-.75-8.26-.03-.34-.1-.49-.49-.49-6.3,.01-12.61,.01-18.91,0-.38,0-.47,.09-.43,.48,.16,1.57,.29,3.15,.43,4.72,.37,4.2,.73,8.4,1.11,12.6,.38,4.22,.77,8.44,1.13,12.66,.04,.48,.2,.66,.65,.78,13.18,3.65,26.35,7.31,39.52,10.97,.17,.05,.34,.06,.5,.05,.13,0,.26-.02,.4-.06,13.11-3.64,26.23-7.28,39.35-10.9,.53-.15,.83-.32,.81-.94-.02-.54,.08-1.09,.13-1.64,.38-4.2,.76-8.4,1.14-12.59,.37-4.18,.73-8.35,1.11-12.53,.42-4.66,.85-9.31,1.26-13.97,.42-4.68,.82-9.36,1.24-14.04,.46-5.14,.94-10.28,1.4-15.41,.42-4.68,.82-9.36,1.24-14.04,.46-5.12,.92-10.23,1.4-15.35,.04-.44-.08-.55-.51-.55Z"/></g></g></g></svg>