<?xml version="1.0" encoding="UTF-8"?><svg id="Layer_2" xmlns="http://www.w3.org/2000/svg" viewBox="0 0 221.17 221.17"><defs><style>.cls-1{fill:#fff;}.cls-2{fill:#f2cac0;}</style></defs><g id="Layer_1-2"><g><rect class="cls-2" y="0" width="221.17" height="221.17" rx="31.46" ry="31.46"/><g><path class="cls-1" d="M159.43,68.54c-16.27,.02-32.54,.02-48.81,.02v.02h-.01c-16.2,0-32.41,0-48.61-.02-.85,0-1.02,.21-.95,1.03,.81,8.55,1.59,17.09,2.36,25.64,.96,10.68,1.92,21.36,2.86,32.04,.07,.84,.26,1.17,1.24,1.17,14.37-.01,28.74,0,43.11,0,7.79,0,15.58,.01,23.37,.02,.09,0,.19,.01,.28,0,.55-.07,.72,.07,.66,.7-.74,8.02-1.45,16.05-2.14,24.08-.06,.69-.28,1-.98,1.19-6.79,1.79-13.57,3.62-20.35,5.46-.29,.08-.56,.11-.84,.11-.29,0-.58-.04-.88-.12-6.78-1.83-13.56-3.66-20.35-5.45-.66-.17-.88-.44-.94-1.1-.39-4.69-.81-9.39-1.23-14.08-.04-.44,.07-.92-.69-.91-6.2,.02-12.4,.02-18.59,0-.48,0-.66,.12-.61,.63,.11,1.05,.17,2.1,.27,3.15,.79,8.83,1.59,17.65,2.36,26.48,.06,.63,.26,.9,.87,1.06,13.06,3.62,26.11,7.27,39.16,10.91,.22,.06,.41,.09,.62,.08,.11,0,.23-.02,.36-.05,13.14-3.66,26.28-7.3,39.43-10.93,.57-.16,.78-.4,.82-1.01,.23-3.06,.51-6.11,.79-9.17,.78-8.61,1.56-17.22,2.34-25.83,.71-7.96,1.41-15.93,2.12-23.89,.1-1.13,.11-1.13-1.04-1.12-14.94,0-29.87,.01-44.81,.02-8.24,0-16.49,0-24.73,0-.25,0-.5-.02-.74,0-.46,.04-.65-.13-.69-.62-.55-6.24-1.1-12.47-1.69-18.7-.07-.77,.09-.99,.9-.99,5.36,.04,10.72,.02,16.08,.02,3.62,0,7.25,0,10.87,0,15.59,0,31.18,0,46.77,.03,.81,0,1.05-.21,1.09-1.02,.09-1.73,.3-3.46,.46-5.19,.4-4.26,.79-8.52,1.19-12.77,.05-.53,.11-.91-.69-.91Z"/><g><path class="cls-1" d="M130.13,48.57c-1.76,2.71-3.52,5.41-5.33,8.2-1.82-2.8-3.58-5.51-5.35-8.23l-.13,.02v.68c0,3.36-.01,6.71,.01,10.07,0,.52-.09,.7-.66,.69-2.12-.04-4.25-.03-6.37,0-.47,0-.67-.07-.67-.61,.02-7.44,.02-14.88,0-22.31,0-.47,.14-.55,.57-.55,2.37,.02,4.73,.02,7.1,0,.42,0,.64,.15,.85,.49,1.4,2.33,2.82,4.66,4.24,6.98,.15,.24,.31,.48,.49,.78,1.57-2.57,3.1-5.08,4.61-7.6,.28-.46,.56-.67,1.13-.65,2.29,.04,4.59,.03,6.88,0,.48,0,.6,.12,.6,.6-.01,7.41-.02,14.83,0,22.24,0,.51-.14,.65-.65,.64-2.2-.03-4.39-.03-6.59,0-.5,0-.59-.17-.59-.62,.02-3.36,0-6.71,0-10.07v-.69l-.15-.04Z"/><path class="cls-1" d="M60.34,48.25c0-3.65,.02-7.29-.02-10.94,0-.69,.21-.81,.83-.8,2.1,.04,4.2,.03,6.3,0,.54,0,.73,.09,.72,.69-.04,2.15,0,4.3-.03,6.45,0,.5,.12,.64,.63,.64,1.98-.03,3.96-.04,5.94,0,.57,.01,.67-.18,.67-.7-.03-2.15,0-4.3-.03-6.45,0-.52,.14-.63,.64-.62,2.2,.03,4.39,.03,6.59,0,.47,0,.61,.11,.6,.6-.02,7.41-.02,14.83,0,22.24,0,.5-.13,.65-.64,.65-2.2-.03-4.39-.03-6.59,0-.48,0-.6-.14-.6-.61,.02-2.2,0-4.39,.02-6.59,0-.5-.13-.65-.64-.64-1.98,.03-3.96,.03-5.94,0-.47,0-.6,.13-.6,.6,.03,2.17,0,4.35,.02,6.52,0,.55-.11,.74-.7,.73-2.15-.04-4.3-.04-6.44,0-.59,.01-.76-.12-.76-.74,.03-3.67,.02-7.34,.02-11.01Z"/><path class="cls-1" d="M97.46,36.53c3.38,0,6.76,.01,10.14-.01,.5,0,.65,.12,.64,.63-.03,2.2-.03,4.4,0,6.59,0,.53-.18,.63-.66,.62-1.88-.03-3.77,0-5.65-.02-.5,0-.64,.11-.64,.63,.02,4.76,0,9.52,.03,14.28,0,.6-.15,.77-.75,.76-2.15-.04-4.3-.03-6.45,0-.51,0-.64-.13-.64-.64,.02-4.76,0-9.52,.03-14.28,0-.6-.14-.76-.75-.75-1.86,.04-3.72,0-5.58,.03-.45,0-.63-.07-.62-.58,.03-2.22,.03-4.45,0-6.67,0-.48,.13-.6,.6-.6,3.43,.02,6.86,.01,10.29,.01Z"/><path class="cls-1" d="M141.93,48.21c0-3.67,.01-7.34-.01-11.01,0-.52,.09-.7,.66-.69,2.2,.04,4.39,.03,6.59,0,.47,0,.59,.12,.59,.59-.02,4.78,0,9.56-.03,14.34,0,.67,.19,.78,.8,.77,3.21-.03,6.42,0,9.63-.03,.53,0,.7,.11,.69,.67-.03,2.17-.03,4.35,0,6.52,0,.47-.12,.61-.6,.61-5.91-.02-11.83-.02-17.74,0-.51,0-.58-.19-.58-.63,.01-3.72,0-7.44,0-11.15Z"/></g></g></g></g></svg>